<?xml version="1.0" encoding="utf-8"?>
<!-- Generator: Adobe Illustrator 24.1.2, SVG Export Plug-In . SVG Version: 6.00 Build 0)  -->
<svg version="1.1" id="Layer_1" xmlns="http://www.w3.org/2000/svg" xmlns:xlink="http://www.w3.org/1999/xlink" x="0px" y="0px"
	 viewBox="0 0 388 201.6" style="enable-background:new 0 0 388 201.6;" xml:space="preserve">
<style type="text/css">
	.st0{clip-path:url(#SVGID_2_);}
	.st1{fill:#E5F5F5;}
	.st2{fill:#D6ECEB;}
	.st3{fill:#FFAA2E;}
	.st4{fill:#3CCEC7;}
	.st5{fill:#C59E57;}
	.st6{fill:#DA3510;}
	.st7{fill:#D38911;}
	.st8{fill:#B6862D;}
	.st9{fill:#446B72;}
	.st10{fill:#71BC9A;}
	.st11{opacity:0.4;fill:#FFFFFF;enable-background:new    ;}
	.st12{fill:#FFFFFF;}
	.st13{opacity:0.77;fill:#FFFFFF;enable-background:new    ;}
	.st14{opacity:0.9;fill:#FFFFFF;enable-background:new    ;}
	.st15{fill:#FFA912;}
	.st16{fill:#D1B06F;}
	.st17{fill:#FFB53E;}
	.st18{fill:#94D9E0;}
	.st19{fill:#273D47;}
	.st20{fill:#B3B3B3;}
	.st21{fill:#D6D5D5;}
	.st22{fill:#BFBFBF;}
	.st23{fill:#F0ECEC;}
	.st24{fill:#603D1D;}
	.st25{fill:#110800;}
	.st26{fill:#34515F;}
	.st27{fill:#2B434C;}
	.st28{fill:#40806B;}
	.st29{fill:#306050;}
	.st30{fill:#0D1418;}
	.st31{fill:#896522;}
	.st32{fill:#00A3A6;}
	.st33{fill:#2D2B28;}
	.st34{fill:#575553;}
	.st35{fill:#868686;}
	.st36{fill:#E9BC2A;}
	.st37{fill:#99DADB;}
	.st38{fill:#005253;}
	.st39{fill:#002929;}
	.st40{fill:#5F9B7E;}
	.st41{opacity:0.7;fill:#2F3743;enable-background:new    ;}
	.st42{opacity:0.2;fill:#FFFFFF;enable-background:new    ;}
	.st43{fill:#448269;}
	.st44{fill:#406651;}
	.st45{fill:#008C8C;}
	.st46{fill:#00B7B7;}
	.st47{fill:#00E2D6;}
	.st48{fill:#007771;}
</style>
<g>
	<defs>
		<rect id="SVGID_1_" x="29" y="-49" width="388" height="298"/>
	</defs>
	<clipPath id="SVGID_2_">
		<use xlink:href="#SVGID_1_"  style="overflow:visible;"/>
	</clipPath>
	<g class="st0">
		<path class="st1" d="M70.9,183.3c-2.8-10.1-24.1-32.3-11.5-47.5c17.1-14.7,33.4-15.5,46.5-17.1c13.1-1.6,33.8-9.1,33.7-29.9
			c-0.1-12.1,1.3-24.2,19.8-37.3c23.8-16.7,81.2-13.6,102.7-36.3c17.1-18,5.8-32.5,23.6-46.1c26.5-20.2,51.1,10.5,51.1,10.5
			l16.6,25.9c0,0,27.4-7.5,34.7,38.6c5,31.4,22.9,26.1,23.9,50.7c1,24.3-21,40.9-21,40.9l-71.1,47.5H59.4H70.9z"/>
		<path class="st2" d="M52.3,188.4c-2.7-9.8-5.1-31.8,11.4-46.1c16.6-14.3,32.3-15.1,45.1-16.6s32.8-8.9,32.6-29
			c-0.1-11.7,1.2-23.5,19.2-36.1c23-16.1,78.7-13.1,99.6-35.2C276.8,8,265.3-3.9,283-19.2c11-9.6,29.4-8.6,42,0.3
			c15.8,11.1,8.9,24.4,42.9,40c25.9,11.9,7.9,38.8,24.2,55.3c13.4,13.6,17.2,40.2,4,60.6c-28.5,44.3-80.1,51.4-80.1,51.4L52.3,188.4
			L52.3,188.4z"/>
		<path class="st3" d="M262.4,105.8H141.3v40.6h121.1V105.8z"/>
		<path class="st4" d="M205.7,114.1h-56v28.2h56V114.1z"/>
		<path class="st5" d="M149.6,125.2h-26.4v21.9h26.4V125.2z"/>
		<path class="st6" d="M149.6,125.2c-0.7-0.1-10.6-6.5-10.6-6.5l-15.8,6.5H149.6z"/>
		<path class="st7" d="M368.2,109.6H247.1v40.6h121.1V109.6z"/>
		<path class="st5" d="M375.2,161c-6.8,5.2-15.2,2.2-15.2,2.2h-9.1v-28.7h42.9v6.3C393.8,140.8,384.1,154.1,375.2,161z"/>
		<path class="st8" d="M393.8,134.5c-1.2-0.2-17.2-8.5-17.2-8.5l-25.7,8.5H393.8z"/>
		<path class="st9" d="M75.4,200.9c-2.3-14-6.1-26.7,2.6-36.7c11.1-12.8,28.6-20.5,63.2-23.6c27.1-2.4,75.9-4.7,82.8-8.9
			c6.9-4.1,93.1-34.5,92.6-19.7c-0.5,16.3-0.5,88.8-0.5,88.8L75.4,200.9z"/>
		<path class="st10" d="M226.5,94.5c-7.6,0-13.9,7.2-15.5,16.8c-5.9,1.4-10.3,7.7-10.3,15.4c0,8.6,2.7,10.8,10.3,10.2
			c3.7-0.3,6.5-0.4,8.5-0.7c1.7,0.3,5.6,0.3,7,0.3c8.8,0,16-8.3,16-20.3C242.5,104.2,235.3,94.5,226.5,94.5z"/>
		<path class="st11" d="M207.9,56h37.8c0,0-10.7-0.8-14.8-3c-4.2-2.2-6.1-2-8-1.7C221,51.6,218.6,54.9,207.9,56z"/>
		<path class="st12" d="M156,80.6h48.1c0,0-7.9-0.9-14.5-3.2C183,75.1,183,71,176.8,71c-6.3,0-7.3,6.8-12.5,7.2
			c-5.2,0.4-6.4-4.3-12.1-4.2c-8.4,0.2-13.1,6.7-15.8,6.7C133.7,80.6,156,80.6,156,80.6z"/>
		<path class="st13" d="M229.9,72.3h-23.2c0,0,3.8-0.4,7-1.5c3.2-1.1,3.2-3.1,6.2-3.1c3,0,3.5,3.3,6,3.4c2.5,0.2,3.1-1.9,4.7-1.5
			s0.6,2.7,1.9,2.7C233.9,72.3,229.9,72.3,229.9,72.3z"/>
		<path class="st14" d="M353.8,45.3H402c0,0-7.9-0.9-14.5-3.2c-6.6-2.3-6.6-6.4-12.9-6.4c-6.3,0-7.3,6.8-12.5,7.2
			c-5.2,0.4-6.4-4.3-12.1-4.2c-8.4,0.2-13.1,6.7-15.8,6.7S353.8,45.3,353.8,45.3z"/>
		<path class="st15" d="M330.7,64.6H223.3v71.7h107.4V64.6z"/>
		<path class="st16" d="M330.7,64.6H223.3v3.7h107.4V64.6z"/>
		<path class="st7" d="M330.7,85.1H223.3V92h107.4V85.1z"/>
		<path class="st17" d="M230.3,85.1h-7v51.4h7V85.1z"/>
		<path class="st16" d="M230.3,85.1h-7v3.4h7V85.1z"/>
		<path class="st18" d="M260.9,120.4l0.5-20c0,0-3.5-1.1,5.2-1.6c8.6-0.6,6,1.3,6,1.3l0.1,20.3H260.9z"/>
		<path class="st8" d="M230.3,88.5h-7V92h7V88.5z"/>
		<path class="st8" d="M251.3,95.7h-21v40.5h21V95.7z"/>
		<path class="st18" d="M248,98.8h-15v37.4h15V98.8z"/>
		<path class="st8" d="M258.4,119.2V98.8l3,1.6v18.8H258.4z"/>
		<path class="st8" d="M272.6,119.2v-19.2l2.6-1.8v21H272.6z"/>
		<path class="st5" d="M258.4,98.8l3,1.6c0,0,2.2-1.6,5.2-1.6c3,0,6,1.3,6,1.3l2.6-1.8c0,0-3.6-2.5-8.4-2.5
			C262,95.8,258.4,98.8,258.4,98.8z"/>
		<path class="st8" d="M272.6,110.8h-11.2v2.6h11.2V110.8z"/>
		<path class="st8" d="M284.1,119.2V98.8l3,1.6v18.8H284.1z"/>
		<path class="st18" d="M286.5,120.4l0.5-20c0,0-3.5-1.1,5.2-1.6c8.6-0.6,6,1.3,6,1.3l0.1,20.3H286.5z"/>
		<path class="st8" d="M298.2,119.2v-19.2l2.6-1.8v21H298.2z"/>
		<path class="st8" d="M316.7,119.2h-66v2.2h66V119.2z"/>
		<path class="st5" d="M284.1,98.8l3,1.6c0,0,2.2-1.6,5.2-1.6c3,0,6,1.3,6,1.3l2.6-1.8c0,0-3.6-2.5-8.4-2.5
			C287.7,95.8,284.1,98.8,284.1,98.8z"/>
		<path class="st8" d="M298.2,110.8h-12.7v2.6h12.7V110.8z"/>
		<path class="st7" d="M330.7,68.3H223.3V77h107.4V68.3z"/>
		<path class="st17" d="M330.7,85.1h-7v51.4h7V85.1z"/>
		<path class="st16" d="M330.7,85.1h-7v3.4h7V85.1z"/>
		<path class="st8" d="M330.7,88.5h-7V92h7V88.5z"/>
		<path class="st19" d="M192.5,156.5c3.8-1.6,10.9,0,12.4,1c1.5,0.9,4.5-0.1,3.2,1.7c-1.2,1.8-8.1,5.8-9.8,6
			C196.5,165.4,192.5,156.5,192.5,156.5z"/>
		<path class="st20" d="M212.7,183.1c0.3,0,12.9-0.5,12.9-0.5l-2,8h-12L212.7,183.1z"/>
		<path class="st21" d="M211.7,157.9c0,0,2.4,3.4,2.7,7.7c0.3,4.3,0,21.1,0,21.1s2.6,0.6,3.7,0.5c1.1-0.1,2.7-0.9,2.7-0.9
			s-1.5-15.6-1.3-19.8c0.2-4.2,1.8-9.7,1.8-9.7L211.7,157.9z"/>
		<path class="st22" d="M215.9,158.7c15.9,0,28.8-4.5,28.8-10.2c0-5.6-12.9-10.2-28.8-10.2c-15.9,0-28.8,4.5-28.8,10.2
			C187.1,154.1,200,158.7,215.9,158.7z"/>
		<path class="st23" d="M215.9,157.4c15.9,0,28.8-4.3,28.8-9.5c0-5.3-12.9-9.5-28.8-9.5c-15.9,0-28.8,4.3-28.8,9.5
			C187.1,153.2,200,157.4,215.9,157.4z"/>
		<path class="st20" d="M179,184.4c0,0,1.3,1.9,1.5,7.3c0.2,5.4,0.5,9.3,0.5,9.3h1.7c0,0-0.1-6.3,0.6-11.7c0.7-5.4,1.9-4.9,1.9-4.9
			H179z"/>
		<path class="st20" d="M164.3,178.4c0,0,0.7,3.3,0.9,6.6c0.3,3.4,0.5,16,0.5,16h1.4c0,0-0.6-17.5,0.5-21.3
			C168.8,176,164.3,178.4,164.3,178.4z"/>
		<path class="st21" d="M201.4,175.4c0,5.6-8.6,10.2-19.1,10.2c-5.7,0-10.6-2-14-4.3c-3.6-2.5-4.4-4.3-4.4-5.9
			c0-4.4,7.8-10.2,18.4-10.2S201.4,169.7,201.4,175.4z"/>
		<path class="st20" d="M202.9,173.7c0,5.6-8.8,10.2-19.7,10.2c-5.8,0-10.9-2-14.4-4.3c-3.7-2.5-4.6-4.3-4.6-5.9
			c0-4.4,8.1-10.2,18.9-10.2C194.1,163.5,202.9,168.1,202.9,173.7z"/>
		<path class="st20" d="M195.8,178.4c0,0,1,1.5,1.2,5.7c0.2,4.2,0.4,7.2,0.4,7.2h1.3c0,0-0.1-4.9,0.4-9.1c0.5-4.2,1.5-3.8,1.5-3.8
			H195.8z"/>
		<path class="st24" d="M198.1,110.3c-0.3,0.5-0.8,1.2-0.9,2.3c-0.2,1.1,0,2-0.2,2.5s-1.1,1.9-1.4,2.5c-0.3,0.6-0.5,1.5-0.6,2
			c-0.1,0.6-0.9,1.2-1.5,1.2c-0.6,0-3.5-1-3.7-1.1c-0.2-0.2-0.3,0.3-0.4,0.7c-0.1,0.4-0.7,2.9-0.7,2.9l-7.8-3.6c0,0,1.3-2.5,1.4-2.9
			c0.1-0.5,8.7-8.1,8.7-8.1l6.3-1.4L198.1,110.3z"/>
		<path class="st25" d="M196.8,110.5c0,0,1.1,0.5,1.5,0.6c0.4,0.1,0.8,0.2,1,0.2c0.2,0,0-0.9,0.2-2.2c0.2-1.3,0.1-2.6-0.5-3.7
			c-0.6-1.1-2.1-1.9-2.9-2.4c-0.8-0.5-2.3-1.9-2.9-2.3c-0.6-0.5-4.1-1.7-5.7-1.3c-1.6,0.4-4.4,1.6-5.2,3.9c-0.9,2.4-1.7,5.5-1.6,6.7
			c0.1,1.2,0.2,2.5,0.4,3.7c0.2,1.2,1,3.7,1,3.9c0.9-0.3,1.7,0,2.3,0.3c0.6,0.3,2.3,0.8,3.4,0.2c1.2-0.6,2-1.8,2.4-2.7
			c0.5-0.9,0.2-4.2,0.4-4.9c0.3-1.7,1.7-1,1.6-0.1c-0.1,0.7,0.3,1.8,0.3,1.9c0,0.1,0.4-1.6,0.8-2.1c0.4-0.6,0.9-0.7,1.2-0.7
			c0.4,0,1.2,0.4,1.5-0.1c0.3-0.4,0.9-1.4,0.9-1.4L196.8,110.5z"/>
		<path class="st26" d="M167,159.6c0,0-0.7,7.1-0.5,8.1c0.2,1,3.4,5.7,3.8,6.9c0.4,1.2,4.5,3.4,7,3.5c2.6,0.2,12,3,13.6,3
			c1.6,0.1,2.6,0.9,3,0.9c0.4,0.1,2.7-0.7,3.8-1c1.1-0.4,5.2-3.2,5.8-3.5c-2.7,4-9.8,21.7-9.6,23.5c1.9,0,19.6,0,19.6,0
			s3.2-23.6,6.7-27.2c-1.5-5.9-2.3-11.8-2.1-12.4s-2.9-2.6-2.9-2.6s-4.1-0.1-5.7-0.3c-1.6-0.1-5.7-0.3-7.1,0.9c-1.5,1.2-5,4.5-5,4.5
			s-12.5,6.2-16.5,3.8C176.7,165.4,167,159.6,167,159.6z"/>
		<path class="st19" d="M193.9,182c0.4,0.1,2.7-0.7,3.8-1c1.1-0.4,5.2-3.2,5.8-3.5c0,0,5.2-7.4,3.2-6.1c-2,1.3-3.9,5.5-5.8,7
			C197.6,181,193.9,182,193.9,182z"/>
		<path class="st27" d="M218,161.3c0.2-0.6-2.9-2.6-2.9-2.6s-4.1-0.1-5.7-0.3c-1.6-0.1-5.7-0.3-7.1,0.9c0,0,1.6,1.3,7.5,1.9
			C216.7,162,218,161.3,218,161.3z"/>
		<path class="st28" d="M176.7,118.8c0.3-0.2,0.5-0.3,1.5,0c0.9,0.3,2,0.2,2.7,0.4c0.7,0.3,4.8,1.5,6.3,2.5c1.6,1,5.3,3,6.8,4.4
			c1.5,1.3,3.3,2.4,3.5,2.6c0.2,0.1,2.1,5.2,2.5,5.8c0.4,0.6,3.7,8.4,4,8.8c0.3,0.4,3.6,5,3.7,5.3c0.1,0.2,12.5-3.8,12.5-3.8
			l7.4,4.3c0,0-3.2,1.2-5,1.8c-1.8,0.6-7.4,2-8.8,2.6c-1.4,0.6-10.9,4.3-11.3,4.5c-0.5,0.2-2.6-2.6-3.5-3c-0.9-0.5-3.2-2-3.9-3
			c0.9,2.8,1.3,3.5,1.6,5.2c0.2,1.7,2.2,5.5,2.2,5.5s-2.8,2.6-4.2,3.4c-1.4,0.8-5,3.1-5,3.1s-2.4-0.7-3.7-0.3s-2.8,1.2-2.8,1.2
			s-3.2-1-3.9-1.6c-0.7-0.6-2.8-1.2-4-2c-1.2-0.8-4.4-3.4-4.4-3.4l-4.8-3.6c0,0,0-2.5,0.6-4c0.6-1.5,1.3-6.2,1.4-6.9
			c0-0.7,0.2-6.5,0.1-8.5c-0.1-2-1-5.9-0.7-7.3c0.3-1.4,1.2-3.6,1.5-4.8c0.2-1.2,0.5-3.9,0.6-4.3c0.2-0.4,3.1-2,4.1-2.5
			C174.3,120.6,176.7,118.8,176.7,118.8z"/>
		<path class="st29" d="M185.2,142c0.4,0.8,1.1,2,1.4,3.3c0.3,1.3,4,8.7,4.5,10.8c0.5,2.1,3,9.3,3,10c1.4-1,3.9-2.8,4.5-3.6
			c-0.6-1.2-2-4.4-2.2-5.5c-0.2-1.1-1.2-5.2-2-6c-0.8-0.8-4-4-5.5-5.5C187.5,144,185.2,142,185.2,142z"/>
		<path class="st23" d="M180.9,186.6c0,0,0.1-23.6,0-27s-0.9-16-3.9-19.1c-3-3-9.6-5-11.2,1.1c-1.6,6.1-0.8,37.5-0.8,37.5
			s-1.6,0.6-2.1-0.8s-0.8-29.9-0.3-34.1c0.4-4.2,2.6-9.2,9.1-9.2c6.5,0,10.5,5.6,11,16.4c0.5,10.8,1,35.2,1,35.2
			S181.9,187.1,180.9,186.6z"/>
		<path class="st23" d="M163.9,155.9c0,0,7.4,5.4,17.5,7.5c0.9,1.7,0.5,4.7,0.5,4.7s-16.7-5.5-18.4-8.9
			C161.8,155.8,163.9,155.9,163.9,155.9z"/>
		<path class="st30" d="M255.9,113.8c0,0,1.5-0.2,2-0.7c0.5-0.4,1.1-0.7,1.1-0.7l0.8,1.3c0,0-0.3,0.9-2.8,2.1
			c-2.5,1.2-6,3.3-7.3,3.8c-1.2,0.5-2,0.9-2.7,0.2c-0.7-0.7,2.7-3,3.7-2.9C252.1,116.2,255.9,113.8,255.9,113.8z"/>
		<path class="st8" d="M240.2,106.5c0.1,0.9-0.1,2.5,1,4.7c1.1,2.2,2.3,3.7,2.6,4.1c0.3,0.4,1.2,1.9,1.9,2.2
			c1.1,0.5,1.8-0.7,2.2-1.1c0.4-0.4,1.8-1.9,2.2-1.2c0.4,0.8,0.9,4.4,0.9,4.4s5.7-2.5,6.3-3.1c-1.2-1.8-2.1-3.7-2.4-5.5
			s-10.1-7.7-10.1-7.7L240.2,106.5z"/>
		<path class="st31" d="M245.8,117.5c1.1,0.5,1.8-0.7,2.2-1.1c0.4-0.4,1.8-1.9,2.2-1.2c0.4,0.8,0.9,4.4,0.9,4.4s0.9-0.4,2.1-0.9
			c0,0-1.3-2.3-1.4-4.7c-0.1-1.9-1.8-0.3-3.5,1.5C246.7,117,245.8,117.5,245.8,117.5z"/>
		<path class="st32" d="M248.4,107c0,0,0.4,0.9,0.4,2.4c0.1,1.6,0,3.4,0,3.4l2.5-1.5c0,0-1.4-2.2-1.5-3.2
			C249.8,107.2,248.4,107,248.4,107z"/>
		<path class="st33" d="M246.9,97.6c0,0-0.9-0.7-1.2-2.4c-0.3-1.7,0.2-3,1.4-3.7c1.3-0.7,3.5-1.1,5.1-0.5c1.6,0.6,3.8,2.4,4.3,3.1
			c0.5,0.8,0.6,2.5,0.5,2.9c-0.1,0.4-0.4,1.8-1.6,2c-1.2,0.2-2.7,0.5-2.8,0.4C252.5,99.5,246.9,97.6,246.9,97.6z"/>
		<path class="st33" d="M241.2,109.2c0,0-1.7,1.2-2.1,1.3c-0.3-0.8-0.4-1.6-0.6-2.1c-0.2-0.5-0.8-2.1-0.7-3.2c0.1-1.1,1-2.4,1-2.4
			s1.2-1,1.6-1.3c0.3-0.3,1.1-1.2,1.2-1.4c0.1-0.3,0.8-1.2,1.1-1.3c0.3-0.2,1.4-0.3,2.1-0.6c0.7-0.4,2.5-0.5,3.9,0
			c1.3,0.5,3.8,0.7,4.9,3c1.1,2.3,1.2,5.7,1.3,7.1c0.1,1.4,0.6,2.8,0.8,3c0.2,0.2,0.1,0.4,0,0.5c-0.1,0.1-0.8,0-2.1-0.5
			s-5.4-3-8.3-6.7c0.2,0.7,0.5,1.6,0.5,1.6l-3.6,2.5l-1.5-1.2L241.2,109.2z"/>
		<path class="st34" d="M243.3,107.5l-1.2,0.8l-1.5-1.2l0.6,2c0,0-1.7,1.2-2.1,1.3c-0.3-0.8-0.4-1.6-0.6-2.1
			c-0.2-0.5-0.8-2.1-0.7-3.2c0.1-1.1,1-2.4,1-2.4s1.2-1,1.6-1.3c0,0,0,1.7,0.7,3.1C241.7,105.9,243.3,107.5,243.3,107.5z"/>
		<path class="st34" d="M255.2,109.9c0.2,0.6,0.4,1.1,0.5,1.2c0.2,0.2,0.1,0.4,0,0.5c-0.1,0.1-0.8,0-2.1-0.5c-1-0.4-3.7-2-6.3-4.5
			c0,0,1.4-0.1,2.7,0.4c1.8,0.7,2.6,1.9,3.5,2.4C254.6,109.9,255.2,109.9,255.2,109.9z"/>
		<path class="st34" d="M251.7,99.3c-1.6-0.5-4.9-1.7-4.9-1.7s-0.9-0.7-1.2-2.4c-0.3-1.7,0.2-3,1.4-3.7c0.1-0.1,0.3-0.2,0.5-0.2
			c0,0-1.4,1-0.8,3.2c0.6,2,2.6,2.2,3.8,2.9C251.4,98,251.7,99.3,251.7,99.3z"/>
		<path class="st31" d="M252.7,145.2c0,0,2.1,3.7,2.3,4.6c0.2,0.9,4.5-1.6,4.5-1.6l0.5-7.4L252.7,145.2z"/>
		<path class="st20" d="M281.9,172.5c0,0,1,0.7,1.6,4.3c0.6,3.7,1.9,17.7,1.9,17.7h1c0,0-0.6-19.5,0.5-22.3
			C285.9,170.3,281.9,172.5,281.9,172.5z"/>
		<path class="st35" d="M276.7,175.2c0,0,1.3,1.5,1.6,4c0.3,2.5,1.2,8.9,1.2,9.4h0.9c0,0-0.5-9.2,0.4-12c0.9-2.8,0.6-3.5,0.6-3.5
			L276.7,175.2z"/>
		<path class="st20" d="M257.4,177.4c1,2,1.5,3.5,1.9,6c0.4,2.6,0.9,15.4,0.8,16.3l1.2-0.1c0,0,0-11.1,0.4-16
			c0.4-4.9,1.3-6.2,1.3-6.2H257.4z"/>
		<path class="st35" d="M250.4,174.6c0,0,1,2.6,1.2,4.1c0.2,1.4,1.1,11.3,1.1,11.3h0.9c0,0-0.2-8.3,0-10.7c0.2-2.5,1-2.8,1-2.8
			L250.4,174.6z"/>
		<path class="st21" d="M285.9,170.3c-2.8,3.5-9,6.5-16.5,7.8c-10.8,1.8-20.3-0.8-21.2-5.9c-0.9-5.1,7.2-10.7,18-12.5L285.9,170.3z"
			/>
		<path class="st20" d="M269.1,176.7c10.2-1.7,17.9-7.3,17-12.3c-0.9-5.1-9.9-7.8-20.1-6c-10.2,1.7-17.9,7.3-17,12.3
			C249.8,175.7,258.9,178.4,269.1,176.7z"/>
		<path class="st23" d="M283.8,145.4c0,0-2.7-2.5-10.9-4c0.4,3.2,0.7,3.7,0.7,3.7s2.8,0.2,6,1.5c3.2,1.3,4.2,2.7,4.2,2.7
			L283.8,145.4L283.8,145.4z"/>
		<path class="st23" d="M284.7,173.2c0,0-1.2-14.7-1.3-18.9c-0.1-4.2-0.5-14.6-0.5-17.6c-0.1-3-0.4-8.2-2.9-10.4
			c-2.6-2.2-6-0.8-7,1.7c-1,2.5-0.9,8.3-0.9,8.3l-1.3-3.7c0,0-0.5-6.2,2.1-8.3c2.6-2.2,6.7-2.8,10.2,1.9c2.6,3.5,2.6,14.7,2.8,18.3
			c0.1,1.4,1.1,24.6,1.1,25.9c0.1,1.3,0,2.6,0,2.6S286,173.9,284.7,173.2z"/>
		<path class="st36" d="M254.6,149.8c0,0-0.3,1,0,2.1c2.4-0.8,4.8-1.7,4.8-1.7l0.5-2.6c0,0-2.1,1.1-3.1,1.5
			C255.9,149.5,254.6,149.8,254.6,149.8z"/>
		<path class="st6" d="M254.6,151.9c-1.6,0.5-9.7,2.9-12.6,4.2c-2.9,1.3-11.4,4.5-12,4.7c-0.7,0.2-2.9,2.5-4.7,6.1
			c-1.8,3.7-6.6,6.4-6.6,9.1s-3.6,7.7-4.4,10.8c-0.8,3.1-2,14.1-2,14.1l46.1,0c0,0-5.6-5.2-7-8.2c-1.4-3-4.5-7.3-4.8-10.3
			c-0.3-3,0.9-6.4,3.4-7.7c2.6-1.3,5.2-1.4,6.8-1.4c1.6,0,6.9-0.3,9.4-1.1c2.6-0.8,3.5-1.6,5.9-1.7c2.4-0.1,5.6-0.2,7-2.1
			c1.4-1.9,1.6-4.4,1.4-4.8c-0.1-0.4-2-2.5-2.5-3.5c-0.5-1.1-1.8-3.4-2.6-5c-0.8-1.6-2.1-4.3-2.5-4.6c-0.5-0.3-12.7-0.6-12.7-0.6
			L254.6,151.9z"/>
		<path class="st32" d="M266.3,172.2c2.6-0.8,3.5-1.6,5.9-1.7c2.4-0.1,5.6-0.2,7-2.1c1.4-1.9,1.6-4.4,1.4-4.8
			c-0.1-0.4-2-2.5-2.5-3.5c-0.5-1.1-1.8-3.4-2.6-5c-0.8-1.6-2.1-4.3-2.5-4.6c0,0-0.1,4.6-1.1,6.2c-1.8,2.8-4.2,2.9-5.1,5.8
			c-0.8,2.5,1.1,5.6,0.5,7.5C267,171.4,266.3,172.2,266.3,172.2z"/>
		<path class="st32" d="M252,173.9c1.9-0.6,3.7-0.6,4.9-0.6c1.3,0,5.2-0.2,7.9-0.7c0,0,0.2-2.1-1.4-3.9c-1.2-1.3-2.5-2.3-5.8-2.1
			c-4.3,0.2-5.4,2.3-5.9,3.8C251.2,172.2,252,173.9,252,173.9z"/>
		<path class="st32" d="M235.3,164c3.3,0.2,5.7-2.2,7.6-3.7c2.5-2,4-5.9,4-5.9c-1.9,0.7-3.8,1.3-4.9,1.8c-2.9,1.3-11.4,4.5-12,4.7
			C230,160.8,232.1,163.7,235.3,164z"/>
		<path class="st32" d="M216.1,196.6c-0.7,2.1,0.4,4.4,0.4,4.4h12c0,0,2.2-7.2-3.2-8.7C220.7,190.9,217.6,192.5,216.1,196.6z"/>
		<path class="st32" d="M234.6,200.9l23.8,0c0,0-5.6-5.2-7-8.2c-1.4-3-4.5-7.3-4.8-10.3c-0.1-1,0-2,0.2-3c0,0-1.8-0.8-3.8,0.8
			c-2.1,1.6-1,6.6-3,9.1c-1.8,2.3-4.2,3-5.5,4.9C233.3,196.1,234.6,200.9,234.6,200.9z"/>
		<path class="st32" d="M225.3,166.9c-1.8,3.7-5,4.3-6.5,6.6c-2,2.9-4,9.8-4.5,13.3c0,0,9.7-3.3,12.1-4.3c3.5-1.5,5.4-5.2,4.5-9.6
			C229.4,165.8,225.3,166.9,225.3,166.9z"/>
		<path class="st8" d="M245.2,160.2c-1.2,0.5-4.3,1.3-5.6,1.6c-1.3,0.3-2.8,1.2-2.9,1.8c-0.1,0.6,1.9,1.1,2.3,1.5
			c0.4,0.4,1.5,2.2,3.1,2c1.6-0.2,3.3-2,3.8-2.4C246.3,164.3,245.2,160.2,245.2,160.2z"/>
		<path class="st31" d="M237.7,164.5c0.5,0.2,1.1,0.5,1.3,0.6c0.4,0.4,1.5,2.2,3.1,2c1.6-0.2,3.3-2,3.8-2.4c0,0-2.7,1.1-5,0
			C238.8,163.8,237.7,164.5,237.7,164.5z"/>
		<path class="st19" d="M219.3,139.3c0,0-1.6,3.8-1.3,4.1c0.3,0.3,0.5,0.5,1.3,0c0.8-0.5,5.1-8.4,5.1-8.4l-0.6-0.5
			c0,0-1.1,0.9-1.9,1.9C221.2,137.3,219.3,139.3,219.3,139.3z"/>
		<path class="st8" d="M223.6,137.9c0,0-2.1-1.9-2.4-2.6c-0.2-0.6-0.1-2.3-0.6-3c-0.5-0.7-1.8-1.6-2.4-2.5c-0.7-0.9-1.1-2.1-1.6-2.3
			c-0.5-0.2-0.9,0.8-0.7,1.2c0.1,0.4,0,1.7,0,1.7s-5.7,1.7-6,2.3c-0.2,0.6-0.1,1.3,0.4,1.4c0.5,0.1,1-0.4,1-0.4l0.6,0.1
			c0,0-0.9,0.8-0.7,1.3c0.2,0.5,0.5,0.5,0.9,0.7c0.4,0.1,1.1-0.7,1.1-0.7s-0.5,1.1-0.1,1.6s0.9,0.5,1.2,0.4c0.3-0.1,2,0.5,2,0.5
			l0.8,0.7c0,0,0.9,0.2,1.9,0.8c1,0.5,2.3,2.4,2.3,2.4L223.6,137.9z"/>
		<path class="st26" d="M259.8,113.8c0,0-0.2,0.7-2.1,1.7c-1.9,1-5.8,3.2-7,3.7c-1.2,0.5-2.4,1.1-2.8,1c-0.4-0.1-0.9-0.4-0.9-0.4
			s0.2,0.5-0.1,1.3c-0.3,0.8-1.8,3.5-3.4,5.3c-1.6,1.8-3,4.3-3.7,5.6c-0.7,1.3-1.2,2-2.6,4.2s-2.8,3.8-3,3.9
			c-0.2,0.1-3.4-0.9-4.3-1.4c-0.9-0.5-2.8-1.2-3.5-1.6c-0.7-0.3-2-1.8-2-2.4c-1,2-2.3,4.2-3,5.4c-0.7,1.2-2.2,2.9-2.4,3.2
			c-0.2,0.3-0.9,0-0.9,0s3.8,4,5.5,4.8c1.7,0.8,6.3,2.7,7,3c0.8,0.3,1.9,1.2,2,1.4c0.1,0.2,1.6-0.8,2.3-1.1c0.7-0.3,2-1.2,5.7-2.3
			c3.8-1.1,8.5-2.2,8.6-2.3c0,0.4,0,0.8,0.5,0.6c0.5-0.1,3.1-1.3,4-1.9s5.4-3.2,5.8-3.4c0.3,0.8,0,1.8-0.1,2.5
			c-0.1,0.8-0.9,7.7-1.7,8.2c-0.8,0.5-3.8,1.9-5,2.5c-1.2,0.5-2.2,1.2-3.7,1.4c-1.4,0.2-1.2,0.2-2.1,0.9c-0.9,0.7-2.2,1.3-2.2,1.3
			s-0.2,1.7,0,2.9c0.2,1.2,0.9,2.4,1,3.1c0,0.7-0.1,1.5-0.1,1.5s2.4,0.7,2.5,0.9c0.9-1.7,2.6-3.1,3.3-3.4c0.7-0.4,5.7-3.7,7.2-4.1
			c1.6-0.5,6.9-3.4,9-4.6c2.1-1.2,4.2-2.9,4.7-3.1c0.5-0.2,1.9-2.1,2-3.2c0.1-1.1-0.2-6.2-0.5-7.7c-0.3-1.6-3.2-14.3-3.5-14.9
			c-0.4-0.6-1.6-1.6-2.7-2.4c-1.2-0.8-4.5-4.4-5.4-6C261.2,116.3,259.8,113.8,259.8,113.8z"/>
		<path class="st19" d="M248.9,120.1c0.4,0.8,0.3,2.5-0.5,6.1c-0.8,3.6-1.8,6.6-2.2,7c0.9,1.9,2.2,5,2.5,8.6c0.3,3.6,0.5,5,0.5,5
			s-7.3,1.9-8.2,2.2c-1,0.3-4.1,1.4-6.1,2.5c1.2-2.7,1-2.7,2.9-5c1.9-2.3,4.1-7.7,4.3-9.4c0.1-1.7-0.5-8.3,0.5-9.4
			c0.9-1.1,2.7-3.4,3.2-4.3c0.5-0.9,1.6-2.6,1.2-3.4C247.4,120.2,248.3,120.2,248.9,120.1z"/>
		<path class="st19" d="M257.3,135.9c0,0,0.2,1.1,0.4,2.1s1.7,3.4,1.8,4.1c0.1,0.7,0,1.8,0,1.8c0,0.1,0.5,0.1,0.4-1.1
			c0-1.2-0.5-2.6-1-3.6C258.5,138.2,257.5,137.1,257.3,135.9z"/>
		<path class="st19" d="M245.6,164.9c0,0.7-0.1,1.5-0.1,1.5s2.4,0.7,2.5,0.9c0.9-1.7,2.6-3.1,3.3-3.4c0.7-0.4,5.7-3.7,7.2-4.1
			c1.6-0.5,6.9-3.4,9-4.6c0.7-0.4,1.5-0.9,2.1-1.4c0,0-15.3,6.1-18.9,7.8C247.1,163.3,245.6,164.9,245.6,164.9z"/>
		<path class="st37" d="M217.1,139.4c0,0-8.7-8.2-9-8.5c-0.3-0.3,4-4.7,4.5-4.9c0.5-0.2,9.2,8,9.4,8.5
			C222.3,134.9,217.1,139.4,217.1,139.4z"/>
		<path class="st38" d="M220.5,132.9c0.9,0.9,1.5,1.5,1.5,1.6c0.2,0.5-4.9,4.9-4.9,4.9s-0.7-0.7-1.8-1.7L220.5,132.9z"/>
		<path class="st38" d="M209,131.7c-0.5-0.5-0.8-0.8-0.9-0.9c-0.3-0.3,4-4.7,4.5-4.9c0.1,0,0.6,0.3,1.2,0.8L209,131.7z"/>
		<path class="st39" d="M218.8,136.9c0.4,0,0.7-0.3,0.7-0.7s-0.3-0.7-0.7-0.7c-0.4,0-0.7,0.3-0.7,0.7S218.4,136.9,218.8,136.9z"/>
		<path class="st40" d="M313.6,102c-9.5,0-17.5,9.7-19.5,22.8c-7.4,1.9-16,11.4-12.6,21.2c4.5,12.8,21,14.3,24.4,15.4
			c4.4,1.3,4.7,5.2,7.6,1c0.1-0.7-1.6-1.4,0.1-1.4c11.1,0,20.1-13.2,20.1-29.5S324.7,102,313.6,102z"/>
		<path class="st41" d="M310.6,179.3c0,0,2.4-13-0.6-18.9c-3-5.9-7.1-12.4-12.4-13c-5.3-0.6-5.3-3.5-5.3-5.9c0-2.4-1.8,0.6,7.7,4.1
			c9.4,3.5,11.2,5.9,11.2,5.9s-3.5-12.3-4-17.6c-0.6-5.3,2.2-16.6,2.3-13.7c0.1,2.9-1.1,7.6-0.4,13.4c0.9,7.4,4.6-4,5.7-6.3
			c1.2-2.4-2.4,7.7-1.8,12.4c0.6,4.7,1.8,10.6,1.2,24.2c-0.2,5.6,1,14.6,1,14.6C314.4,180.9,310.6,179.3,310.6,179.3z"/>
		<path class="st42" d="M332.9,189c0,0-1.3-9.4-5.1-12.3c-1.7-1.3-4.9-3.5-6.3-4.7c-1.4-1.2-3.4-1-3.4-1s6.5,3.2,8.7,6.9
			C329,181.6,332.9,189,332.9,189z"/>
		<path class="st42" d="M313.6,161c0,0-1.2-5.6-2.4-9.4c-1.6-5.2-3.5-13.4-3.5-14.7s0.3,2.4,2.6,2.9c2.4,0.5,1.8,5,2.6,9.2
			c0.8,4.2,1.3,12.1,1.3,12.1L313.6,161z"/>
		<path class="st43" d="M308.9,141.4c13.2-7.4,29-5.1,38.2,4.8c11.1-4.1,23-0.9,28.1,8.2c5.8,10.2,0.5,24.1-11.6,30.9
			c-6.4,3.6-13.4,4.5-19.5,3.1c-1.9,1.7-4,3.2-6.3,4.5c-15.3,8.6-34.2,4-42.2-10.2S293.6,150,308.9,141.4z"/>
		<path class="st44" d="M328.7,145.4c-13,0-23.8,10-26.6,23.5c-10,1.9-17.6,10.8-17.6,21.4c0,12.1,11.5,15.8,23.5,15.8
			c6.3,0,11.9-2.7,15.9-7c2.1,0.6,6.8,4.9,9.1,4.9c12,0,23-11.5,23-28.3C356,159,343.8,145.4,328.7,145.4z"/>
		<path class="st41" d="M319.6,211.7c0,0-0.5-16,3-26.8c-1.7-4.6-4.3-10-9.3-11.9c-5-2-4.4-3.8-3.9-5.3c0.5-1.5-1.8-0.2,6.5,4.9
			c8.3,5.1,9.6,7.1,9.6,7.1s-0.9-8.8-0.4-12.4c0.5-3.5,5.4-9.9,4.9-8c-0.5,1.9-2.6,4.5-3.1,8.4c-0.6,4.9,5.2-1.2,6.7-2.3
			c1.6-1.1-3.8,4.2-4.1,7.3c-0.4,3.2-0.4,7.3-3.7,15.7c-1.7,4.5-3.2,6.7-3.2,24.2C322.6,214.9,319.6,211.7,319.6,211.7z"/>
		<path class="st40" d="M327.9,177c-12.9-5.2-27.1-1.1-34.4,9c-10.6-2.4-21.2,2-24.8,10.9c-4.1,10.1,7.1,14.4,14.8,14.4
			c7.7,0,12.6-0.9,18-2.9c1.9,1.3,6.2,2.6,9,3.5c14.7,4.6,30.1,1.5,33.5-7S343,183,327.9,177z"/>
		<path class="st10" d="M70.4,130c-9.1,0-16.8,9.4-18.8,21.9c-7.1,1.8-15.3,11-12.1,20.4C43.8,184.5,59.7,186,63,187
			c4.2,1.3,4.5,5,7.3,1c0.1-0.7-1.5-1.3,0.1-1.3c10.7,0,19.3-12.7,19.3-28.3C89.7,142.6,81,130,70.4,130z"/>
		<path class="st41" d="M67.5,204.2c0,0,2.3-12.5-0.6-18.1c-2.8-5.7-6.8-11.9-11.9-12.5c-5.1-0.6-5.1-3.4-5.1-5.7
			c0-2.3-1.7,0.6,7.4,4c9.1,3.4,10.8,5.7,10.8,5.7s-3.3-11.8-3.9-16.9c-0.6-5.1,2.1-16,2.2-13.1c0.1,2.8-1.1,7.3-0.4,12.9
			c0.8,7.1,4.4-3.8,5.5-6.1c1.1-2.3-2.3,7.4-1.7,11.9c0.6,4.5,1.7,10.2,1.1,23.2c-0.2,5.4,0.9,14.1,0.9,14.1
			C71.1,205.8,67.5,204.2,67.5,204.2z"/>
		<path class="st42" d="M70.4,186.6c0,0-1.2-5.4-2.3-9.1c-1.5-5-3.4-12.9-3.4-14.1c0-1.3,0.3,2.3,2.5,2.8c2.3,0.5,1.8,4.8,2.5,8.8
			c0.8,4,1.3,11.6,1.3,11.6L70.4,186.6z"/>
		<path class="st40" d="M61.3,168.8c10.1-5.7,22.2-3.9,29.3,3.6c8.5-3.1,17.7-0.7,21.6,6.3c4.4,7.9,1.2,16-8.2,21.3
			c-4.9,2.7-10.3,2.1-15,1c-3,3-11,5-18.5,4.5c-15-1-20-10.3-21.5-17C47.7,182.5,49.5,175.4,61.3,168.8z"/>
		<path class="st45" d="M216.5,109.9c0.7-1,2.5-3.2,2.5-3.2s-1.2-2.7-1.7-4.3c-0.8,1.6-2.5,3.9-2.8,4.4
			C215.6,107.5,216.4,108.7,216.5,109.9L216.5,109.9z"/>
		<path class="st45" d="M219.6,107l-2.7,3.2l0.1,0.1c0.4,0,1.6-0.1,3-0.4c0.7-1,1.9-2.4,2.8-3.3C221.7,106.7,219.6,107,219.6,107z"
			/>
		<path class="st6" d="M211,122.4c0.4-1.4,1.5-4.4,1.5-4.4s-2.3-2.4-3.4-4c-0.3,2.1-1.2,5.1-1.4,5.8
			C209.1,120.1,210.3,121.1,211,122.4L211,122.4z"/>
		<path class="st6" d="M213.2,118.1l-1.8,4.5l0.1,0c0.4-0.2,1.7-0.8,3.1-1.6c0.4-1.4,1.2-3.3,1.8-4.6
			C215.4,117,213.2,118.1,213.2,118.1z"/>
		<path class="st6" d="M269.6,105.7c0.5-0.8,1.8-2.4,1.8-2.4s-0.9-2-1.4-3.2c-0.6,1.2-1.8,2.9-2,3.3
			C268.9,103.9,269.4,104.8,269.6,105.7L269.6,105.7z"/>
		<path class="st6" d="M271.8,103.5l-2,2.4l0.1,0c0.3,0,1.2-0.1,2.2-0.4c0.5-0.8,1.4-1.8,2-2.5C273.4,103.2,271.8,103.5,271.8,103.5
			z"/>
		<path class="st6" d="M264.3,93.6c0.4-0.7,1.5-2.4,1.5-2.4s-1-1.7-1.5-2.8c-0.5,1.2-1.4,2.9-1.6,3.3
			C263.5,92,264.1,92.8,264.3,93.6L264.3,93.6z"/>
		<path class="st6" d="M266.5,88.8l-0.6,2.1c0,0-0.6-0.9-0.6-1.3L266.5,88.8z"/>
		<path class="st46" d="M272.2,82.4c0.4-1.4,1.5-4.4,1.5-4.4s-2.3-2.4-3.4-4c-0.3,2.1-1.2,5.1-1.4,5.8
			C270.3,80.1,271.5,81.1,272.2,82.4L272.2,82.4z"/>
		<path class="st46" d="M274.4,78.1l-1.8,4.5l0.1,0c0.4-0.2,1.7-0.7,3.1-1.6c0.4-1.4,1.2-3.3,1.8-4.6
			C276.6,76.9,274.4,78.1,274.4,78.1z"/>
		<path class="st47" d="M285,93.3c0.7-1,2.5-3.2,2.5-3.2s-1.2-2.7-1.7-4.3c-0.8,1.6-2.5,3.9-2.8,4.4C284.1,90.9,284.8,92.1,285,93.3
			L285,93.3z"/>
		<path class="st47" d="M288.1,90.5l-2.7,3.2l0.1,0.1c0.4,0,1.6-0.1,3-0.4c0.7-1,1.9-2.4,2.8-3.3C290.2,90.1,288.1,90.5,288.1,90.5z
			"/>
		<path class="st48" d="M293.8,68.1c0.7-1,2.5-3.2,2.5-3.2s-1.2-2.7-1.7-4.3c-0.8,1.6-2.5,3.9-2.8,4.4
			C292.9,65.7,293.6,66.9,293.8,68.1L293.8,68.1z"/>
		<path class="st48" d="M296.8,65.2l-2.7,3.2l0.1,0.1c0.4,0,1.6-0.1,3-0.4c0.7-1,1.9-2.4,2.8-3.3C298.9,64.9,296.8,65.2,296.8,65.2z
			"/>
		<path class="st6" d="M302.6,83.3c0.5-0.9,2-2.8,2-2.8s-1.4-2-2-3.3c-0.6,1.4-1.9,3.4-2.1,3.8C301.5,81.4,302.3,82.3,302.6,83.3
			L302.6,83.3z"/>
		<path class="st6" d="M305.5,77.7l-0.8,2.5c0,0-0.8-1.1-0.8-1.5L305.5,77.7z"/>
	</g>
</g>
<g>
	<path class="st12" d="M0,145.8c139.2,95.4,181.1,29.4,388,59.5v99.2H0V145.8z"/>
</g>
</svg>
